<?xml version="1.0" encoding="utf-8"?>
<!-- Generator: Adobe Illustrator 27.2.0, SVG Export Plug-In . SVG Version: 6.00 Build 0)  -->
<svg version="1.1" id="Camada_1" xmlns="http://www.w3.org/2000/svg" xmlns:xlink="http://www.w3.org/1999/xlink" x="0px" y="0px"
	 viewBox="0 0 600 600" style="enable-background:new 0 0 600 600;" xml:space="preserve">
<style type="text/css">
	.st0{fill:none;}
	.st1{fill:#50F3FF;}
	.st2{fill:#DDD7CA;}
	.st3{fill:#D7EEF2;}
	.st4{fill:#16415B;}
	.st5{fill:#FFFFFF;}
</style>
<g>
	<g>
		<g>
			<g>
				<g>
					<path class="st2" d="M279.55,248.57c15.23-13.23,34.46-23.38,58.39-30.76c1.69,4.41,3.34,8.81,4.94,13.16
						c2.01,5.47,4.09,10.91,6.16,16.31c6.96,18.19,13.73,35.9,17.45,53.79c3.14-0.99,6.15-2.09,9.02-3.32
						c-3.92-17.99-10.68-35.69-17.63-53.85c-2.05-5.37-4.12-10.76-6.11-16.2c-1.52-4.14-3.09-8.32-4.69-12.52
						c4.16-1.11,8.45-2.14,12.87-3.1c7.32-1.59,14.8-3.03,22.35-4.39c-3.51-2.77-7.22-5.3-11.13-7.56
						c-4.44,0.87-8.86,1.76-13.23,2.71c-4.92,1.07-9.69,2.23-14.3,3.47c-2.44-6.21-4.97-12.47-7.56-18.74
						c-3.55-0.63-7.17-1.12-10.85-1.45c3.2,7.64,6.31,15.26,9.29,22.84c-24.92,7.76-45.06,18.47-61.16,32.46
						c-18.14,15.76-32.16,36.74-40.93,61.07c2.99,0.45,6.2,0.91,9.58,1.36C250.26,281.84,263.1,262.87,279.55,248.57z"/>
				</g>
				<g>
					<path class="st2" d="M363.54,362.5c-7.13,20.41-26.69,36.34-47.54,38.74c-29.23,3.37-51.03-0.94-64.8-12.82
						c-9.11-7.86-15.33-20.33-17.09-34.22c-1.5-11.93-0.06-25.05,4.43-40.09c0.1-0.35,0.24-0.68,0.34-1.03
						c-3.36-0.47-6.54-0.93-9.49-1.39c-4.8,16.21-6.33,30.5-4.67,43.69c2.07,16.42,9.28,30.7,20.29,40.2
						c12.51,10.79,30.25,16.22,52.88,16.22c6.05,0,12.45-0.39,19.19-1.17c24.71-2.85,46.98-20.94,55.39-45.02
						c7.17-20.5,7.77-39.73,4.81-58.53c-2.94,1.18-6.01,2.24-9.17,3.2C370.55,327.26,369.84,344.48,363.54,362.5z"/>
				</g>
				<g>
					<path class="st2" d="M283.52,77.08c-1.26-2.29-4.13-3.13-6.42-1.88c-2.29,1.26-3.13,4.13-1.88,6.43
						c15.84,28.91,31.68,61.71,45.85,94.68c3.63,0.19,7.2,0.57,10.72,1.04C316.99,142.49,300.26,107.64,283.52,77.08z"/>
				</g>
				<g>
					<path class="st2" d="M486.92,186.81c-35.69,1.55-69.96,5.21-102.29,10.85c3.41,2.45,6.66,5.1,9.73,7.96
						c29.53-4.8,60.65-7.96,92.96-9.36c2.61-0.11,4.64-2.32,4.52-4.93C491.73,188.72,489.49,186.67,486.92,186.81z"/>
				</g>
				<g>
					<path class="st2" d="M391.14,215.62c12.59,12.89,19.6,46.05,9.51,62.28c-5.45,8.76-14.25,15.2-25.14,19.86
						c0.68,3.1,1.28,6.22,1.77,9.34c13.52-5.41,24.58-13.21,31.41-24.2c12.63-20.33,4.5-58.25-10.77-73.89
						c-1.15-1.17-2.35-2.28-3.55-3.39c-4.06,0.66-8.08,1.36-12.08,2.08C385.4,210.15,388.37,212.78,391.14,215.62z"/>
				</g>
				<g>
					<path class="st2" d="M242,303.86c-1.13,3.02-2.17,6.1-3.12,9.23c34.83,4.82,89.74,9.22,129.24-2.79
						c-0.44-3.08-0.99-6.15-1.62-9.22C329.92,312.57,276.59,308.49,242,303.86z"/>
				</g>
				<g>
					<path class="st2" d="M289.46,177.98c-46.31,7.14-86.17,33.55-104.03,68.93c-19.78,39.17-16.39,93.15,8.63,137.5
						c26.65,47.24,74.26,65.83,134.07,52.33c7.83-1.77,15.84-4.12,23.81-6.98c37.71-13.56,61.63-10.62,73.14,8.97
						c4.98,8.49,5.86,18.52,2.46,28.25c-3.6,10.32-11.7,18.78-21.65,22.61c-2.44,0.94-3.65,3.68-2.71,6.12
						c0.72,1.88,2.52,3.03,4.42,3.03c0.57,0,1.14-0.1,1.7-0.32c12.51-4.82,22.67-15.41,27.18-28.32c4.33-12.4,3.18-25.24-3.24-36.16
						c-13.99-23.81-42.42-28.21-84.5-13.08c-7.6,2.73-15.24,4.97-22.69,6.65c-39.18,8.84-92.45,7.73-123.74-47.75
						c-19.27-34.15-29.34-87.16-8.42-128.59c16.51-32.69,53.69-57.16,97.02-63.84c11.83-1.82,23.34-2.18,34.32-1.2
						c-1.37-3.27-2.75-6.55-4.16-9.82C310.86,175.77,300.28,176.31,289.46,177.98z"/>
				</g>
				<g>
					<path class="st2" d="M371.16,200.14c4.45-0.87,8.95-1.69,13.47-2.48c-14.99-10.8-33.02-17.69-52.85-20.31
						c1.45,3.41,2.88,6.82,4.29,10.23C348.82,189.86,360.67,194.06,371.16,200.14z"/>
				</g>
				<g>
					<path class="st2" d="M232.41,302.5c-14.77-2.22-24.37-4.21-24.75-4.3c-2.56-0.54-5.07,1.09-5.61,3.64
						c-0.54,2.55,1.09,5.07,3.64,5.61c1.49,0.32,10.37,2.17,23.69,4.24c0.03-0.1,0.05-0.19,0.08-0.29
						C230.36,308.39,231.36,305.43,232.41,302.5z"/>
				</g>
				<g>
					<path class="st2" d="M242,303.86c-3.39-0.45-6.59-0.91-9.58-1.36c-1.06,2.93-2.05,5.89-2.95,8.91
						c-0.03,0.1-0.05,0.19-0.08,0.29c2.95,0.46,6.13,0.93,9.49,1.39C239.83,309.96,240.87,306.88,242,303.86z"/>
				</g>
				<g>
					<path class="st2" d="M371.16,200.14c3.91,2.26,7.61,4.8,11.13,7.56c4-0.72,8.02-1.42,12.08-2.08c-3.08-2.85-6.33-5.5-9.73-7.96
						C380.11,198.45,375.61,199.27,371.16,200.14z"/>
				</g>
				<g>
					<path class="st2" d="M366.49,301.08c0.64,3.07,1.18,6.14,1.62,9.22c3.16-0.96,6.22-2.02,9.17-3.2
						c-0.49-3.12-1.09-6.24-1.77-9.34C372.64,298.98,369.63,300.09,366.49,301.08z"/>
				</g>
				<g>
					<path class="st2" d="M331.79,177.35c-3.53-0.47-7.09-0.84-10.72-1.04c1.41,3.27,2.79,6.55,4.16,9.82
						c3.68,0.33,7.3,0.81,10.85,1.45C334.66,184.17,333.23,180.76,331.79,177.35z"/>
				</g>
			</g>
			<g>
				<g>
					<path class="st2" d="M268.6,68.67c7.25,0,7.27-11.27,0-11.27C261.35,57.39,261.33,68.67,268.6,68.67L268.6,68.67z"/>
				</g>
			</g>
		</g>
	</g>
	<g>
		<g>
			<path class="st1" d="M448.75,424.71c-1.08,0-2.17-0.37-3.05-1.13c-1.97-1.69-2.19-4.65-0.51-6.61
				c28.28-32.98,43.85-75.09,43.85-118.58c0-28.5-6.4-55.81-19.04-81.17c-1.15-2.32-0.21-5.13,2.11-6.29
				c2.32-1.15,5.13-0.21,6.29,2.11c13.29,26.67,20.02,55.38,20.02,85.35c0,45.72-16.37,90-46.11,124.68
				C451.38,424.15,450.07,424.71,448.75,424.71z"/>
		</g>
		<g>
			<path class="st1" d="M446.17,178.51c-1.29,0-2.57-0.53-3.5-1.56c-31.6-35.34-74.94-56.76-122.02-60.31
				c-2.58-0.19-4.52-2.45-4.32-5.03c0.19-2.58,2.43-4.52,5.03-4.32c49.51,3.73,95.08,26.25,128.31,63.41
				c1.73,1.93,1.56,4.89-0.37,6.62C448.4,178.12,447.29,178.51,446.17,178.51z"/>
		</g>
		<g>
			<path class="st1" d="M306.76,490.05c-105.68,0-191.66-85.98-191.66-191.66c0-91.45,65.05-170.55,154.67-188.08
				c2.55-0.5,5,1.16,5.5,3.7c0.5,2.54-1.16,5-3.7,5.5c-85.23,16.67-147.09,91.9-147.09,178.87c0,100.51,81.77,182.28,182.28,182.28
				c36.39,0,71.52-10.69,101.6-30.92c2.15-1.45,5.06-0.88,6.51,1.27c1.45,2.15,0.87,5.06-1.27,6.51
				C381.96,478.81,345.02,490.05,306.76,490.05z"/>
		</g>
	</g>
	<g>
		<path class="st3" d="M98.72,213.24l1.19-2.46c2.17,0.51,4.15,0.3,5.97-0.63c1.81-0.93,3.19-2.35,4.12-4.28
			c1.55-3.21,1.56-6.25,0.03-9.13c-1.36-2.56-3.59-4.59-6.7-6.09c-3.11-1.5-6.08-1.98-8.9-1.43c-3.23,0.59-5.62,2.48-7.16,5.69
			c-1.12,2.32-1.23,4.63-0.35,6.93c0.82,2.18,2.37,3.97,4.64,5.36l-1.19,2.46c-3.02-1.87-5.01-4.22-5.95-7.04
			c-0.95-2.82-0.7-5.73,0.75-8.72c1.87-3.89,4.71-6.28,8.51-7.19c3.46-0.83,7.08-0.34,10.84,1.48c3.77,1.81,6.4,4.34,7.91,7.56
			c1.66,3.53,1.55,7.25-0.32,11.13c-1.24,2.58-3.05,4.5-5.4,5.74C104.11,213.96,101.45,214.17,98.72,213.24z"/>
		<path class="st3" d="M78.88,209.82l19.33,7.51l-0.92,2.36l-19.33-7.51L78.88,209.82z M101.85,218.74l3.78,1.47l-0.92,2.36
			l-3.78-1.47L101.85,218.74z"/>
		<path class="st3" d="M75.98,217.47l19.64,6.65l-0.75,2.21l-4.61-1.56l-0.03,0.08c1.39,1.15,2.3,2.52,2.73,4.1
			c0.42,1.59,0.3,3.24-0.37,4.97l-2.4-0.81c0.82-2.1,0.79-4.06-0.11-5.89c-0.89-1.83-2.38-3.1-4.46-3.8l-10.47-3.54L75.98,217.47z"
			/>
		<path class="st3" d="M87.48,252.16l-20.09-5.15l0.58-2.26l3.62,0.93l0.02-0.08c-1.16-0.96-1.96-2.16-2.38-3.6
			c-0.42-1.44-0.44-2.91-0.05-4.41c1.2-4.7,4.35-6.4,9.44-5.09l13.04,3.34l-0.63,2.45l-13.08-3.35c-3.69-0.94-5.99,0.38-6.91,3.96
			c-0.51,1.97-0.07,3.72,1.31,5.23c1.23,1.34,2.97,2.29,5.2,2.87l10.55,2.7L87.48,252.16z"/>
		<path class="st3" d="M66.26,253.03l20.42,3.61l-0.41,2.3l-4.79-0.85l-0.01,0.08c1.55,0.93,2.65,2.14,3.31,3.65
			c0.66,1.5,0.79,3.16,0.39,4.97l-2.49-0.44c0.5-2.2,0.17-4.13-0.99-5.81c-1.16-1.67-2.82-2.7-4.99-3.09l-10.88-1.92L66.26,253.03z"
			/>
		<path class="st3" d="M82.8,286.34l-18.96-1.85c-6.61-0.64-9.62-4.02-9.03-10.13c0.22-2.27,0.9-4.11,2.03-5.54
			c1.29-1.65,2.97-2.46,5.04-2.42l-0.25,2.52c-2.8,0.24-4.37,2.12-4.71,5.64c-0.43,4.43,1.95,6.89,7.15,7.4l2.8,0.27l0.01-0.08
			c-1.22-0.71-2.16-1.69-2.82-2.92c-0.66-1.24-0.92-2.59-0.78-4.05c0.31-3.15,1.57-5.42,3.77-6.82c2.01-1.28,4.59-1.77,7.74-1.47
			c2.96,0.29,5.32,1.34,7.08,3.15c1.89,1.91,2.69,4.3,2.41,7.18c-0.14,1.47-0.67,2.76-1.59,3.88c-0.92,1.12-1.99,1.88-3.21,2.27
			l-0.01,0.08l3.56,0.35L82.8,286.34z M65.42,275.39c-0.2,2.08,0.48,3.82,2.04,5.21c1.44,1.27,3.28,2.02,5.52,2.23
			c2.29,0.22,4.28-0.09,5.95-0.96c1.96-1.02,3.04-2.64,3.26-4.85c0.22-2.24-0.51-4.06-2.17-5.46c-1.44-1.22-3.35-1.94-5.72-2.17
			c-2.27-0.22-4.2,0.16-5.8,1.13C66.65,271.58,65.63,273.21,65.42,275.39z"/>
		<path class="st3" d="M62.02,290.33l20.73,0.64l-0.08,2.53l-20.73-0.64L62.02,290.33z M86.65,291.1l4.06,0.13l-0.08,2.53
			l-4.06-0.13L86.65,291.1z"/>
		<path class="st3" d="M76.19,300.7l-0.08-2.53c2.33,0.03,4.13,0.82,5.38,2.36c1.14,1.38,1.76,3.32,1.84,5.81
			c0.16,5.09-1.98,7.7-6.42,7.85l-11.01,0.36c-1.02,0.03-1.51,0.54-1.48,1.53c0.01,0.27,0.07,0.53,0.19,0.8l-2.13,0.07
			c-0.12-0.51-0.19-1.05-0.21-1.64c-0.04-1.21,0.27-2.03,0.92-2.48c0.52-0.37,1.39-0.57,2.59-0.61l0-0.08
			c-1.5-0.92-2.58-1.86-3.23-2.83c-0.76-1.18-1.17-2.71-1.23-4.58c-0.07-2.04,0.38-3.69,1.33-4.95c1.03-1.4,2.53-2.13,4.51-2.2
			c2.57-0.08,4.36,1.03,5.38,3.33c0.52,1.13,1.07,3.66,1.65,7.59c0.17,1.2,0.41,2,0.72,2.39c0.42,0.55,1.15,0.81,2.2,0.77
			c2.84-0.09,4.2-1.94,4.08-5.56C81.07,302.47,79.41,300.67,76.19,300.7z M70.2,311.87l3.29-0.11l0-0.08
			c-0.41-0.2-0.74-0.9-0.99-2.1c-0.26-1.47-0.54-2.93-0.83-4.4c-0.35-1.65-0.79-2.87-1.32-3.66c-0.73-1-1.71-1.47-2.94-1.43
			c-1.21,0.04-2.17,0.53-2.91,1.48c-0.73,0.95-1.08,2.04-1.04,3.27c0.06,2.01,0.72,3.7,1.95,5.06
			C66.65,311.28,68.24,311.93,70.2,311.87z M90.59,310.73l0.05,1.53c-1.05-0.13-1.93-0.46-2.65-1c-0.82-0.62-1.25-1.41-1.28-2.37
			c-0.03-0.8,0.25-1.83,0.82-3.08c0.58-1.25,0.86-2.05,0.85-2.4c-0.05-1.42-0.75-2.11-2.12-2.06l-0.05-1.57
			c1.05,0.1,1.97,0.45,2.75,1.06c0.78,0.6,1.19,1.4,1.22,2.39c0.03,0.8-0.24,1.81-0.79,3.02c-0.55,1.21-0.82,2.03-0.81,2.46
			C88.62,309.69,89.29,310.37,90.59,310.73z"/>
		<path class="st3" d="M85.03,327.35c0.39,3.03-0.37,5.57-2.3,7.63c-1.8,1.94-4.25,3.1-7.33,3.5c-3.08,0.4-5.74-0.11-7.98-1.52
			c-2.38-1.5-3.77-3.77-4.16-6.8c-0.39-3.03,0.37-5.57,2.3-7.63c1.8-1.94,4.25-3.1,7.33-3.5c3.08-0.4,5.74,0.11,7.98,1.52
			C83.25,322.06,84.64,324.32,85.03,327.35z M82.92,327.63c-0.3-2.29-1.45-3.97-3.45-5.07c-1.8-0.98-3.89-1.32-6.25-1.02
			c-2.36,0.31-4.29,1.16-5.79,2.57c-1.66,1.57-2.35,3.49-2.05,5.78c0.3,2.29,1.45,3.97,3.45,5.07c1.8,0.98,3.89,1.32,6.25,1.02
			c2.36-0.31,4.29-1.16,5.79-2.57C82.53,331.84,83.21,329.91,82.92,327.63z"/>
		<path class="st3" d="M101.34,366.71l-27.59,7.89l-0.64-2.24l3.79-1.08l-0.02-0.08c-1.41-0.16-2.72-0.8-3.94-1.93
			c-1.21-1.13-2.04-2.44-2.46-3.94c-0.82-2.89-0.41-5.44,1.24-7.67c1.49-2.01,3.74-3.45,6.75-4.31c3.01-0.86,5.68-0.83,8.01,0.09
			c2.58,1.02,4.28,2.97,5.1,5.86c0.44,1.55,0.46,3.06,0.07,4.56c-0.4,1.49-1.21,2.7-2.46,3.61l0.02,0.08l11.44-3.27L101.34,366.71z
			 M79.16,355.79c-2.32,0.66-4.1,1.73-5.35,3.2c-1.47,1.68-1.9,3.6-1.28,5.76c0.68,2.4,2.1,3.96,4.26,4.68
			c1.81,0.6,3.89,0.56,6.24-0.11c2.34-0.67,4.13-1.74,5.35-3.2c1.45-1.75,1.83-3.83,1.15-6.22c-0.62-2.16-2-3.57-4.13-4.21
			C83.56,355.09,81.48,355.13,79.16,355.79z"/>
		<path class="st3" d="M98.94,381.08c1.13,2.84,1.01,5.49-0.35,7.96c-1.27,2.32-3.35,4.05-6.24,5.2c-2.89,1.14-5.59,1.31-8.11,0.49
			c-2.68-0.87-4.58-2.72-5.71-5.56c-1.13-2.84-1.01-5.49,0.35-7.96c1.27-2.32,3.35-4.05,6.24-5.2c2.89-1.14,5.59-1.31,8.11-0.49
			C95.92,376.38,97.82,378.24,98.94,381.08z M96.96,381.86c-0.85-2.14-2.38-3.5-4.59-4.06c-1.99-0.51-4.09-0.33-6.31,0.55
			c-2.22,0.88-3.88,2.18-4.98,3.92c-1.23,1.93-1.41,3.96-0.57,6.1c0.85,2.14,2.38,3.5,4.59,4.06c1.99,0.51,4.09,0.33,6.31-0.55
			c2.22-0.88,3.88-2.18,4.98-3.92C97.62,386.04,97.81,384,96.96,381.86z"/>
		<path class="st3" d="M89.07,411.64l30.6-4.56l1.55,2.63l-19.04,24.24l-1.49-2.53l5.92-7.54L100,412.62l-9.44,1.54L89.07,411.64z
			 M118.03,409.67l-15.59,2.5l5.72,9.74L118.03,409.67z"/>
		<path class="st3" d="M98.44,441.81l22.8-16.96l1.39,1.87l-3.16,2.35l0.05,0.06c1.47-0.36,2.93-0.25,4.37,0.33
			c1.45,0.58,2.67,1.54,3.68,2.9c1.79,2.41,2.31,4.95,1.55,7.61c-0.68,2.41-2.28,4.55-4.79,6.42c-2.52,1.87-5.02,2.78-7.53,2.74
			c-2.77-0.04-5.05-1.27-6.84-3.68c-0.96-1.29-1.51-2.68-1.66-4.18c-0.17-1.58,0.17-3.01,1.01-4.3l-0.05-0.06l-9.32,6.93
			L98.44,441.81z M122.83,444.36c1.93-1.44,3.24-3.06,3.9-4.86c0.77-2.11,0.48-4.06-0.86-5.87c-2.89-3.89-6.71-4.08-11.44-0.56
			c-1.96,1.46-3.25,3.08-3.88,4.89c-0.74,2.15-0.36,4.23,1.12,6.23c1.34,1.81,3.13,2.64,5.38,2.51
			C118.97,446.58,120.9,445.8,122.83,444.36z"/>
		<path class="st3" d="M131.9,448.94l-1.7-1.87c1.8-1.49,3.67-2.05,5.63-1.69c1.77,0.31,3.49,1.39,5.17,3.24
			c3.42,3.77,3.49,7.15,0.2,10.14l-8.15,7.41c-0.75,0.68-0.8,1.39-0.13,2.13c0.18,0.2,0.4,0.36,0.66,0.49l-1.58,1.43
			c-0.42-0.31-0.83-0.68-1.23-1.11c-0.81-0.89-1.11-1.72-0.9-2.49c0.16-0.62,0.69-1.33,1.58-2.14l-0.05-0.06
			c-1.74,0.28-3.17,0.26-4.29-0.06c-1.35-0.41-2.65-1.3-3.91-2.69c-1.37-1.51-2.1-3.05-2.2-4.63c-0.13-1.73,0.55-3.26,2.01-4.6
			c1.9-1.73,3.99-2.05,6.25-0.95c1.13,0.53,3.19,2.1,6.18,4.71c0.91,0.8,1.61,1.25,2.1,1.35c0.68,0.15,1.4-0.13,2.17-0.83
			c2.1-1.91,1.94-4.2-0.49-6.88C136.77,447.13,134.34,446.84,131.9,448.94z M134.58,461.33l2.44-2.22l-0.05-0.06
			c-0.44,0.11-1.15-0.21-2.12-0.96c-1.15-0.95-2.31-1.88-3.48-2.81c-1.34-1.03-2.46-1.67-3.38-1.93c-1.2-0.28-2.26-0.01-3.17,0.82
			c-0.89,0.81-1.31,1.82-1.25,3.01c0.06,1.2,0.5,2.25,1.33,3.16c1.35,1.49,2.94,2.35,4.77,2.59
			C131.5,463.19,133.13,462.65,134.58,461.33z"/>
		<path class="st3" d="M134.89,473.06l14.27-15.05l1.69,1.6l-3.35,3.53l0.06,0.05c1.63-0.78,3.25-1.03,4.87-0.76
			c1.62,0.28,3.07,1.08,4.36,2.42l-1.74,1.84c-1.56-1.63-3.36-2.42-5.39-2.37c-2.04,0.04-3.81,0.86-5.32,2.46l-7.61,8.02
			L134.89,473.06z"/>
		<path class="st3" d="M164.71,486.14l-12.36-10.09c-1.34,1.68-2.07,3.43-2.21,5.25c-0.16,2.19,0.62,3.98,2.34,5.39
			c2.66,2.17,5.46,2.17,8.4,0.01l1.96,1.6c-4.03,3.11-7.93,3.12-11.71,0.04c-2.41-1.97-3.57-4.31-3.48-7.05
			c0.09-2.45,1.15-4.91,3.17-7.38c1.91-2.35,4.08-3.83,6.49-4.46c2.75-0.7,5.32-0.07,7.7,1.88c2.43,1.98,3.5,4.44,3.23,7.36
			C168,481.23,166.82,483.71,164.71,486.14z M153.69,474.4l10.4,8.49c1.24-1.61,1.86-3.32,1.85-5.13c-0.01-1.94-0.77-3.53-2.28-4.77
			c-1.52-1.24-3.24-1.66-5.18-1.28C156.76,472.04,155.16,472.93,153.69,474.4z"/>
		<path class="st3" d="M162.37,496.22l16.72-23.32l2.06,1.48l-16.72,23.32L162.37,496.22z"/>
		<path class="st3" d="M169.26,501.2l15.2-24.34l2.15,1.34l-6.11,9.79l0.07,0.04c1.04-0.81,2.29-1.21,3.76-1.21
			c1.47,0,2.83,0.39,4.08,1.17c2.36,1.48,3.68,3.14,3.95,4.98c0.23,1.66-0.35,3.6-1.74,5.83l-7.07,11.32l-2.15-1.34l6.85-10.98
			c2.21-3.54,1.83-6.25-1.15-8.11c-1.68-1.05-3.38-1.32-5.09-0.81c-1.71,0.51-3.11,1.64-4.2,3.39l-6.41,10.26L169.26,501.2z"/>
		<path class="st3" d="M206.55,498.09c2.74,1.36,4.42,3.41,5.06,6.15c0.61,2.57,0.22,5.25-1.17,8.04c-1.38,2.78-3.29,4.71-5.7,5.78
			c-2.57,1.14-5.23,1.04-7.96-0.32c-2.73-1.36-4.42-3.41-5.06-6.15c-0.61-2.57-0.22-5.25,1.17-8.04c1.38-2.78,3.29-4.71,5.7-5.78
			C201.16,496.63,203.82,496.73,206.55,498.09z M205.6,500c-2.06-1.03-4.11-1.01-6.13,0.05c-1.82,0.95-3.26,2.49-4.32,4.63
			c-1.06,2.14-1.42,4.22-1.08,6.24c0.38,2.25,1.6,3.89,3.66,4.92c2.06,1.03,4.11,1.01,6.13-0.05c1.82-0.95,3.26-2.49,4.32-4.63
			c1.06-2.14,1.42-4.21,1.08-6.24C208.88,502.67,207.67,501.03,205.6,500z"/>
		<path class="st3" d="M222.75,528.46l8.55-27.39l9.48,2.96c4.12,1.29,6.88,3.42,8.3,6.4c1.41,2.98,1.42,6.72,0.01,11.22
			c-1.41,4.5-3.54,7.58-6.39,9.22c-2.86,1.65-6.35,1.83-10.46,0.54L222.75,528.46z M233.21,504.1l-7.16,22.94l5.56,1.74
			c3.96,1.24,7.11,1.24,9.45,0c2.34-1.24,4.14-3.89,5.41-7.95c1.27-4.07,1.29-7.27,0.08-9.62c-1.22-2.34-3.81-4.14-7.78-5.37
			L233.21,504.1z"/>
		<path class="st3" d="M250.06,536.33l4.64-20.21l2.47,0.57l-4.64,20.21L250.06,536.33z M255.57,512.31l0.91-3.96l2.47,0.57
			l-0.91,3.96L255.57,512.31z"/>
		<path class="st3" d="M279.02,520.6L276,539.41c-1.05,6.56-4.61,9.35-10.67,8.38c-2.25-0.36-4.05-1.15-5.4-2.37
			c-1.57-1.39-2.27-3.12-2.1-5.18l2.5,0.4c0.07,2.81,1.84,4.49,5.34,5.05c4.39,0.71,7-1.52,7.83-6.68l0.45-2.78l-0.08-0.01
			c-0.79,1.18-1.82,2.06-3.09,2.64c-1.27,0.58-2.64,0.76-4.09,0.52c-3.12-0.5-5.31-1.9-6.57-4.19c-1.16-2.09-1.48-4.69-0.98-7.81
			c0.47-2.94,1.67-5.23,3.59-6.87c2.02-1.76,4.46-2.42,7.32-1.96c1.45,0.23,2.71,0.84,3.78,1.83c1.06,0.99,1.75,2.1,2.07,3.34
			l0.08,0.01l0.57-3.53L279.02,520.6z M267.02,537.27c2.06,0.33,3.84-0.24,5.32-1.71c1.36-1.36,2.22-3.15,2.57-5.37
			c0.37-2.28,0.17-4.27-0.58-6c-0.9-2.02-2.44-3.2-4.64-3.55c-2.22-0.36-4.08,0.25-5.59,1.83c-1.3,1.36-2.15,3.22-2.52,5.58
			c-0.36,2.25-0.11,4.2,0.77,5.86C263.29,535.8,264.85,536.92,267.02,537.27z"/>
		<path class="st3" d="M300.21,533.2l-15.92-1.01c-0.11,2.14,0.31,3.99,1.26,5.56c1.14,1.87,2.82,2.88,5.04,3.02
			c3.42,0.22,5.7-1.41,6.83-4.88l2.53,0.16c-1.46,4.87-4.63,7.16-9.5,6.85c-3.1-0.2-5.41-1.43-6.93-3.7
			c-1.35-2.04-1.92-4.66-1.72-7.84c0.19-3.02,1.09-5.49,2.68-7.4c1.83-2.17,4.28-3.15,7.36-2.96c3.13,0.2,5.43,1.57,6.91,4.1
			C300.04,527.3,300.53,530,300.21,533.2z M284.43,530.06l13.4,0.85c0.08-2.04-0.42-3.78-1.48-5.25c-1.13-1.58-2.68-2.43-4.63-2.55
			c-1.95-0.12-3.61,0.54-4.96,1.98C285.55,526.36,284.77,528.02,284.43,530.06z"/>
		<path class="st3" d="M319.18,527.81l-2.53,0.07c-0.09-1.5-0.69-2.63-1.78-3.41c-0.98-0.7-2.24-1.03-3.76-0.99
			c-1.31,0.03-2.4,0.32-3.27,0.85c-1.05,0.67-1.57,1.62-1.53,2.85c0.04,1.69,1.51,2.82,4.39,3.38l3.4,0.68
			c3.96,0.78,5.98,2.64,6.06,5.59c0.05,2.06-0.8,3.68-2.57,4.85c-1.53,1-3.39,1.54-5.59,1.59c-5.3,0.14-8.21-2.22-8.71-7.09
			l2.53-0.07c0.15,1.66,0.79,2.92,1.93,3.79c1.14,0.87,2.57,1.28,4.31,1.23c1.42-0.04,2.66-0.36,3.71-0.98
			c1.27-0.76,1.88-1.79,1.85-3.1c-0.05-1.85-1.59-3.07-4.64-3.66l-3.27-0.64c-1.89-0.38-3.28-0.92-4.18-1.62
			c-1.12-0.88-1.7-2.14-1.75-3.77c-0.05-1.96,0.75-3.48,2.41-4.57c1.4-0.92,3.14-1.41,5.23-1.46c2.17-0.06,3.95,0.45,5.35,1.51
			C318.23,523.99,319.04,525.64,319.18,527.81z"/>
		<path class="st3" d="M326.58,514.76l0.6,6.2l4.2-0.4l0.2,2.12l-4.2,0.4l1.34,13.92c0.09,0.91,0.25,1.52,0.5,1.85
			c0.34,0.48,0.94,0.7,1.8,0.67c0.51-0.02,1.23-0.13,2.15-0.33l0.21,2.16c-0.24,0.02-0.61,0.07-1.1,0.15
			c-0.49,0.07-0.87,0.12-1.14,0.15c-1.68,0.16-2.88-0.06-3.6-0.66c-0.72-0.6-1.16-1.79-1.33-3.55l-1.36-14.12l-3.6,0.35l-0.2-2.12
			l3.6-0.35l-0.6-6.2L326.58,514.76z"/>
		<path class="st3" d="M334.39,516.2l-0.56-4.02l2.51-0.35l0.56,4.02L334.39,516.2z M337.8,540.6l-2.88-20.54l2.51-0.35l2.88,20.54
			L337.8,540.6z"/>
		<path class="st3" d="M351.68,538.32l-11.9-18.77l2.76-0.55l9.95,16.58l0.08-0.02l2.74-19.11l2.56-0.51l-3.55,21.85L351.68,538.32z
			"/>
		<path class="st3" d="M368.27,512.32c2.93-0.86,5.56-0.51,7.9,1.06c2.2,1.48,3.73,3.7,4.61,6.68c0.88,2.98,0.8,5.69-0.24,8.12
			c-1.11,2.59-3.12,4.32-6.05,5.18c-2.93,0.87-5.56,0.51-7.9-1.06c-2.2-1.48-3.73-3.7-4.61-6.68c-0.88-2.98-0.8-5.69,0.24-8.12
			C363.32,514.91,365.34,513.18,368.27,512.32z M368.87,514.36c-2.21,0.65-3.7,2.06-4.46,4.21c-0.69,1.93-0.69,4.05-0.02,6.33
			c0.68,2.29,1.83,4.06,3.45,5.31c1.81,1.39,3.82,1.76,6.03,1.11c2.21-0.65,3.69-2.05,4.46-4.21c0.69-1.93,0.69-4.05,0.02-6.33
			s-1.83-4.06-3.45-5.31C373.09,514.08,371.08,513.71,368.87,514.36z"/>
	</g>
	<g>
		<path class="st3" d="M490.58,422.52l-1.4,1.91c-1.77-0.77-3.49-0.9-5.19-0.4c-1.69,0.51-3.08,1.51-4.18,3.01
			c-1.82,2.5-2.3,5.09-1.45,7.78c0.76,2.39,2.35,4.47,4.77,6.23c2.42,1.76,4.87,2.63,7.36,2.61c2.84,0,5.17-1.24,6.99-3.74
			c1.31-1.8,1.77-3.75,1.38-5.85c-0.36-1.99-1.4-3.75-3.12-5.29l1.4-1.91c2.28,2.07,3.61,4.38,3.98,6.93
			c0.37,2.55-0.3,4.99-1.99,7.32c-2.2,3.02-4.99,4.62-8.37,4.8c-3.08,0.17-6.09-0.82-9.01-2.95c-2.93-2.13-4.78-4.69-5.57-7.68
			c-0.86-3.27-0.19-6.42,2.01-9.44c1.46-2.01,3.3-3.36,5.5-4.05C486.1,421.06,488.39,421.3,490.58,422.52z"/>
		<path class="st3" d="M507.56,428.03l-21.51-12.48l5.72-9.85c1.11-1.91,2.45-3.18,4.03-3.82c1.73-0.71,3.52-0.54,5.37,0.54
			c1.41,0.82,2.39,1.86,2.94,3.12c0.59,1.34,0.63,2.76,0.11,4.25l0.06,0.04c1.65-2.15,4-2.47,7.03-0.95c1.79,0.9,2.79,1.4,3,1.5
			c1.38,0.59,2.41,0.82,3.09,0.71l-1.31,2.26c-0.6,0.03-1.83-0.43-3.68-1.37c-2.1-1.06-3.65-1.62-4.65-1.69
			c-1.7-0.13-3.05,0.67-4.05,2.4l-4.51,7.77l9.55,5.54L507.56,428.03z M488.99,414.51l8.46,4.91l4.44-7.65
			c0.76-1.31,1.02-2.63,0.77-3.96c-0.25-1.34-1-2.37-2.26-3.11c-1.34-0.78-2.63-0.99-3.84-0.64c-1.21,0.36-2.26,1.29-3.13,2.79
			L488.99,414.51z"/>
		<path class="st3" d="M519.86,406.41l-22.79-9.97l1.39-3.19l23.43,0.85l-16.54-16.59l1.4-3.19l22.79,9.96l-0.95,2.17l-19.69-8.61
			l-0.03,0.06l16.29,16.4l-0.89,2.04l-23.11-0.79l-0.03,0.06l19.69,8.61L519.86,406.41z"/>
		<path class="st3" d="M531.57,379.51l-0.6,1.78l-21.15-18.42l0.56-1.68L531.57,379.51z"/>
		<path class="st3" d="M535.47,366.24l-24.11-6.11l2.8-11.04c0.54-2.14,1.48-3.73,2.83-4.78c1.47-1.16,3.24-1.48,5.31-0.95
			c1.58,0.4,2.8,1.13,3.68,2.19c0.94,1.12,1.36,2.48,1.27,4.06l0.07,0.02c1-2.53,3.17-3.47,6.51-2.84c1.96,0.38,3.06,0.59,3.29,0.62
			c1.49,0.19,2.54,0.13,3.17-0.17l-0.64,2.53c-0.58,0.19-1.88,0.09-3.91-0.31c-2.31-0.44-3.95-0.56-4.94-0.35
			c-1.67,0.34-2.75,1.48-3.24,3.42l-2.21,8.71l10.7,2.71L535.47,366.24z M513.9,358.33l9.49,2.4l2.17-8.58
			c0.37-1.46,0.26-2.8-0.35-4.02c-0.6-1.22-1.61-2.01-3.03-2.37c-1.51-0.38-2.8-0.24-3.87,0.44c-1.07,0.68-1.82,1.86-2.25,3.54
			L513.9,358.33z"/>
		<path class="st3" d="M532.91,342.23l0.35-2.34c4.39,0.76,7-1.59,7.82-7.03c0.24-1.56,0.06-3.03-0.53-4.41
			c-0.69-1.65-1.85-2.6-3.48-2.85c-2.14-0.32-3.87,1.14-5.21,4.39l-2.17,5.27c-1.45,3.56-3.71,5.11-6.76,4.65
			c-1.65-0.25-3.03-1.02-4.13-2.31c-1.47-1.75-1.98-4.15-1.52-7.2c0.39-2.57,1.35-4.6,2.89-6.08c1.68-1.63,3.72-2.25,6.13-1.86
			l-0.35,2.34c-1.8-0.2-3.32,0.29-4.55,1.46c-1.13,1.1-1.83,2.57-2.11,4.4c-0.27,1.79-0.13,3.27,0.42,4.43
			c0.66,1.39,1.84,2.21,3.54,2.47c1.88,0.28,3.32-0.77,4.31-3.15l2.38-5.77c1.7-4.09,4.18-5.89,7.44-5.4
			c1.58,0.24,2.89,0.93,3.91,2.07c1.69,1.85,2.26,4.65,1.69,8.39c-0.46,3.08-1.51,5.37-3.15,6.89
			C538.08,342.26,535.76,342.8,532.91,342.23z"/>
		<path class="st3" d="M543.24,294l2.02,0.03L545,310.09c-2.16-0.08-4.05-0.84-5.68-2.29c-1.03-0.92-2.27-2.51-3.72-4.76
			c-1.56-2.42-2.76-4.05-3.58-4.9c-1.32-1.37-2.85-2.07-4.56-2.09c-1.53-0.03-2.77,0.5-3.72,1.58c-0.88,1.01-1.33,2.28-1.35,3.81
			c-0.03,1.88,0.63,3.32,1.98,4.32c1.19,0.88,2.77,1.31,4.72,1.3l-0.04,2.19c-2.6,0-4.66-0.66-6.17-1.98
			c-1.6-1.4-2.38-3.38-2.34-5.96c0.04-2.21,0.65-3.98,1.83-5.33c1.25-1.44,2.97-2.15,5.15-2.11c1.86,0.03,3.54,0.68,5.05,1.96
			c1.12,0.95,2.29,2.38,3.52,4.31c1.79,2.82,2.73,4.27,2.82,4.37c1.34,1.76,2.71,2.78,4.1,3.06L543.24,294z"/>
		<path class="st3" d="M539.3,289.32l-0.15-2.19c1.35-0.28,2.41-0.9,3.17-1.86c0.76-0.96,1.09-2.14,1-3.53
			c-0.18-2.53-1.56-4.27-4.17-5.23c-1.89-0.68-4.28-0.93-7.17-0.73l0.01,0.07c1.25,0.5,2.28,1.31,3.1,2.44
			c0.82,1.13,1.28,2.38,1.38,3.75c0.17,2.41-0.45,4.4-1.86,5.98c-1.4,1.58-3.31,2.45-5.72,2.61c-2.36,0.16-4.38-0.48-6.05-1.92
			c-1.67-1.44-2.59-3.36-2.75-5.74c-0.21-2.99,0.63-5.22,2.51-6.7c1.88-1.48,5.15-2.38,9.83-2.7c2.71-0.19,5.13,0.1,7.25,0.86
			c3.41,1.23,5.24,3.56,5.48,6.99C545.45,285.86,543.5,288.5,539.3,289.32z M534.61,282.14c-0.13-1.85-0.86-3.29-2.18-4.32
			c-1.26-0.98-2.81-1.41-4.66-1.28c-1.83,0.13-3.27,0.71-4.31,1.76c-1.15,1.15-1.66,2.73-1.52,4.75c0.12,1.69,0.82,3.05,2.11,4.06
			c1.29,1.02,2.81,1.46,4.55,1.34c1.83-0.13,3.32-0.76,4.48-1.9C534.22,285.42,534.74,283.95,534.61,282.14z"/>
		<path class="st3" d="M517.99,264.29c-0.87-5.6,2.82-9.04,11.08-10.33c8.28-1.29,12.86,0.87,13.73,6.46
			c0.87,5.6-2.82,9.04-11.08,10.33C523.44,272.04,518.86,269.89,517.99,264.29z M519.81,264.01c0.65,4.15,4.49,5.68,11.54,4.58
			c7.07-1.1,10.28-3.73,9.63-7.88c-0.65-4.15-4.5-5.68-11.57-4.58C522.37,257.23,519.17,259.85,519.81,264.01z"/>
		<path class="st3" d="M514.36,246.12c-1.34-5.5,2.04-9.25,10.17-11.23c8.14-1.99,12.89-0.23,14.23,5.27
			c1.34,5.51-2.04,9.25-10.17,11.23C520.45,253.38,515.71,251.62,514.36,246.12z M516.16,245.68c1,4.08,4.96,5.28,11.88,3.59
			c6.95-1.7,9.92-4.59,8.93-8.67c-1-4.08-4.97-5.28-11.92-3.58C518.12,238.71,515.16,241.6,516.16,245.68z"/>
		<path class="st3" d="M528.19,213.92l1.92-0.64l5.11,15.22c-2.06,0.64-4.1,0.55-6.11-0.26c-1.28-0.53-2.98-1.61-5.09-3.25
			c-2.28-1.76-3.95-2.9-5.01-3.43c-1.7-0.85-3.37-1-5-0.45c-1.45,0.49-2.45,1.4-2.98,2.73c-0.49,1.24-0.49,2.59,0,4.04
			c0.6,1.78,1.7,2.92,3.31,3.41c1.42,0.43,3.04,0.31,4.88-0.35l0.7,2.08c-2.45,0.87-4.61,0.93-6.48,0.19
			c-1.98-0.78-3.37-2.39-4.19-4.84c-0.7-2.09-0.72-3.97-0.05-5.64c0.7-1.78,2.09-3.01,4.16-3.71c1.76-0.59,3.57-0.54,5.42,0.17
			c1.38,0.52,2.96,1.48,4.75,2.89c2.63,2.06,4,3.12,4.11,3.18c1.85,1.21,3.48,1.72,4.88,1.52L528.19,213.92z"/>
	</g>
</g>
</svg>
