<?xml version="1.0" encoding="UTF-8"?>
<svg id="Camada_2" fill='currenColor' stroke='currenColor' data-name="Camada 2" xmlns="http://www.w3.org/2000/svg" viewBox="0 0 2387.7 722.91">
  <defs>
  
  </defs>
  <g id="Camada_1-2" data-name="Camada 1">
    <g>
      <path  d="M2387.7,722.91H0V0H2387.7V722.91Zm-29.21-688.91c-.47-.55-.94-1.1-1.41-1.64-.98,0-1.96-.01-2.94,0-60.82,.74-121.63,1.44-182.45,2.25-61.48,.82-122.97,1.38-184.44,2.72-66.63,1.45-133.25,3.68-199.87,5.51-44.14,1.21-88.28,2.26-132.42,3.47-66.96,1.83-133.91,3.77-200.87,5.59-55.13,1.5-110.27,2.86-165.4,4.37-67.29,1.84-134.58,3.8-201.87,5.64-55.13,1.5-110.27,2.85-165.4,4.36-66.79,1.83-133.58,3.79-200.37,5.62-55.47,1.52-110.93,2.86-166.4,4.38-78.78,2.16-157.56,4.44-236.35,6.6-67.12,1.84-134.25,3.56-201.38,5.37-5.6,.15-11.19,.54-16.89,.83-.33,6.27-.63,12.01-.97,18.61h1957.85c-1.35,2.25-2.86,3.48-4.41,4.65-54.86,41.2-109.7,82.42-164.58,123.59-180.62,135.52-361.26,271.02-541.89,406.54-1.47,1.1-3.35,1.97-4.23,3.43-1.07,1.78-2.3,4.63-1.57,6.01,.73,1.37,3.8,1.92,5.87,2,1.46,.06,3.05-1.15,4.46-2,4.85-2.91,9.65-5.92,14.47-8.87,125.52-76.69,251.04-153.38,376.55-230.08,168.4-102.91,336.78-205.84,505.17-308.76,35.78-21.87,71.58-43.7,107.31-65.64,1.74-1.07,2.95-3,4.4-4.52ZM299.39,163.86c-2.25,15.96-4.48,31.09-6.47,46.25-.89,6.76,2.71,10.55,9.51,10.55,23.16,0,46.32,0,69.48,0,1.91,0,3.81,0,6.03,0-1.98,13.88-3.84,26.87-5.68,39.87-3.8,26.85-7.59,53.69-11.37,80.54-4.5,31.95-8.95,63.91-13.5,95.86-.86,6.01,2.52,10.29,8.6,10.29,18.16,.02,36.33,.02,54.49,0,1.44,0,2.88-.19,4.46-.3,10.69-75.59,21.32-150.79,31.93-225.87h98.23c-2.08,14.42-4.14,28.4-6.11,42.39-8.16,58.15-16.29,116.3-24.43,174.45-.71,5.04,2.91,9.31,8.1,9.32,18.5,.04,36.99-.07,55.49,.1,3.33,.03,4.29-1.34,4.69-4.24,3.68-26.86,7.41-53.71,11.18-80.56,1.22-8.68,2.56-17.34,3.83-25.87h127.9c-.08,1.24-.08,2.06-.19,2.87-4.61,32.44-9.24,64.88-13.84,97.33-.96,6.78,2.34,10.39,9.36,10.39,17.5,0,34.99-.15,52.49,.11,4.45,.07,5.88-1.25,6.47-5.68,3.95-29.85,8.22-59.65,12.41-89.47,4.47-31.79,8.98-63.58,13.44-95.37,3.83-27.34,7.57-54.7,11.45-82.04,.99-6.98-2.23-10.93-9.4-10.93-13.66,0-27.33,0-40.99,0h-17.01c-5.1,36.22-10.12,71.91-15.14,107.59h-127.9c4.61-32.38,9.11-64.31,13.72-96.23,1.07-7.39-2.1-11.36-9.56-11.36-101.98,0-203.96,0-305.93,0h-5.74Zm1153.23,56.81c2.18-15.71,4.32-30.68,6.3-45.68,1.04-7.88-2.01-11.12-10.06-11.12-48.65,0-97.31,0-145.96,0-6.66,0-13.33,.08-19.99-.04-2.57-.05-3.8,.54-4.18,3.45-1.81,14.02-3.92,28-5.87,42-5.11,36.57-10.16,73.15-15.32,109.71-5.49,38.87-11.1,77.71-16.61,116.58-1.16,8.21,1.94,11.66,10.18,11.68,99.63,.17,199.27,.47,298.9,.32,11.7-.02,23.72-1.29,35-4.24,12.68-3.32,22.96-11.7,32.17-21.16,28.69-29.47,30.86-79.38,4.63-111.04-11.23-13.55-25.81-22.88-40.44-32.21-11.49-7.32-23.13-14.59-33.74-23.08-11.25-9-10.04-23.23,1.47-31.98,7.85-5.97,16.88-7.74,26.4-7.05,21.4,1.55,40.65,9.35,58.59,20.76,4.63,2.94,11.11,.4,12.05-4.94,2.62-14.9,5.02-29.84,7.69-44.73,.61-3.43-1.25-4.65-3.71-6.05-28.06-15.98-58.07-23.43-90.42-21.11-23.12,1.66-43.65,9.48-61.49,24.47-36.84,30.95-41.45,89.69,1.71,122.59,10.83,8.26,22.55,15.35,33.65,23.27,9.47,6.75,19.15,13.34,27.79,21.06,7.02,6.28,10.14,15.03,6.95,24.55-3.06,9.12-10.01,14.43-19.44,15.81-5.55,.81-11.27,.94-16.88,.68-9.44-.44-18.86-2.07-28.28-2.1-60.32-.2-120.64-.1-180.95-.1-1.97,0-3.94,0-6.47,0,2.86-20.3,5.66-40.12,8.52-60.42h98.84c2.17-15.69,4.3-30.83,6.33-45.99,.95-7.11-2.31-10.68-9.55-10.68-27.33,0-54.65,0-81.98,0-1.76,0-3.52,0-5.67,0,2.29-16.22,4.81-31.65,6.49-47.17,.6-5.49,2.83-6.15,7.53-6.12,33.16,.18,66.32,.09,99.47,.09,1.98,0,3.95,0,6.34,0Zm-462.74-60.12c-1.16-.15-1.81-.3-2.47-.3-21.33-.02-42.66,.07-63.99-.11-3.35-.03-4.23,1.94-5.31,4.18-15.16,31.45-30.3,62.91-45.49,94.35-28.55,59.13-57.14,118.24-85.69,177.37-2.58,5.35,1.09,11.18,7.05,11.18,19.83,.03,39.66-.06,59.49,.08,3.16,.02,4.6-1.05,5.85-3.94,7.39-17.09,15.12-34.03,22.5-51.11,1.45-3.36,3.13-4.71,6.94-4.68,22.33,.2,44.66,.1,66.99,.1h4.99c2.85,20.17,5.61,39.7,8.42,59.55,21.01,0,41.65,.05,62.29-.05,3.66-.02,7.36-5.05,6.73-8.71-6.89-39.97-13.8-79.93-20.73-119.9-7.53-43.4-15.07-86.8-22.63-130.19-1.62-9.3-3.31-18.59-4.95-27.83Zm93.89,3.31c-.38,2.06-.72,3.52-.92,4.99-2.46,17.62-4.86,35.25-7.36,52.86-5.18,36.55-10.43,73.09-15.6,109.64-4.94,34.9-9.79,69.82-14.75,104.72-1.02,7.17,2.12,11.15,9.24,11.15,58.97,0,117.94,0,176.91,0h5.39c2.17-15.66,4.28-30.64,6.32-45.62,.94-6.87-2.53-10.66-9.61-10.66-35.65,0-71.3,0-106.95,0-1.79,0-3.58,0-5.68,0,.19-2.18,.25-3.82,.48-5.44,3.52-25.03,7.09-50.05,10.61-75.08,4.24-30.13,8.45-60.27,12.65-90.4,2.18-15.64,4.37-31.29,6.44-46.95,.57-4.33-2.98-9.16-6.8-9.17-19.97-.09-39.95-.04-60.37-.04Z"/>
      <path d="M2358.49,34c-1.46,1.53-2.67,3.46-4.4,4.52-35.73,21.94-71.53,43.77-107.31,65.64-168.39,102.92-336.78,205.85-505.17,308.76-125.51,76.7-251.03,153.39-376.55,230.08-4.83,2.95-9.62,5.96-14.47,8.87-1.41,.85-3,2.05-4.46,2-2.07-.08-5.14-.63-5.87-2-.73-1.37,.5-4.22,1.57-6.01,.88-1.46,2.77-2.33,4.23-3.43,180.63-135.51,361.27-271.02,541.89-406.54,54.88-41.17,109.72-82.39,164.58-123.59,1.55-1.17,3.06-2.39,4.41-4.65H99.08c.34-6.6,.64-12.34,.97-18.61,5.7-.29,11.29-.68,16.89-.83,67.13-1.81,134.25-3.53,201.38-5.37,78.78-2.16,157.56-4.44,236.35-6.6,55.46-1.52,110.93-2.86,166.4-4.38,66.79-1.83,133.58-3.79,200.37-5.62,55.13-1.51,110.27-2.85,165.4-4.36,67.29-1.84,134.58-3.8,201.87-5.64,55.13-1.51,110.27-2.86,165.4-4.37,66.96-1.82,133.91-3.76,200.87-5.59,44.14-1.21,88.28-2.25,132.42-3.47,66.62-1.83,133.24-4.07,199.87-5.51,61.47-1.33,122.96-1.9,184.44-2.72,60.81-.81,121.63-1.51,182.45-2.25,.98-.01,1.96,0,2.94,0,.47,.55,.94,1.1,1.41,1.64Z"/>
      <path d="M299.39,163.86h5.74c101.98,0,203.96,0,305.93,0,7.46,0,10.63,3.97,9.56,11.36-4.61,31.91-9.11,63.85-13.72,96.23h127.9c5.02-35.67,10.04-71.37,15.14-107.59h17.01c13.66,0,27.33,0,40.99,0,7.16,0,10.39,3.95,9.4,10.93-3.88,27.34-7.62,54.69-11.45,82.04-4.46,31.79-8.97,63.58-13.44,95.37-4.19,29.82-8.46,59.62-12.41,89.47-.59,4.43-2.01,5.75-6.47,5.68-17.49-.26-34.99-.1-52.49-.11-7.02,0-10.32-3.61-9.36-10.39,4.59-32.45,9.23-64.89,13.84-97.33,.11-.81,.11-1.63,.19-2.87h-127.9c-1.27,8.53-2.62,17.19-3.83,25.87-3.76,26.85-7.5,53.7-11.18,80.56-.4,2.9-1.35,4.27-4.69,4.24-18.49-.17-36.99-.05-55.49-.1-5.19-.01-8.81-4.28-8.1-9.32,8.14-58.15,16.27-116.3,24.43-174.45,1.96-13.99,4.03-27.97,6.11-42.39h-98.23c-10.61,75.07-21.24,150.27-31.93,225.87-1.59,.11-3.02,.3-4.46,.3-18.16,.02-36.33,.03-54.49,0-6.08,0-9.45-4.28-8.6-10.29,4.55-31.95,9-63.9,13.5-95.86,3.78-26.85,7.57-53.69,11.37-80.54,1.84-13,3.7-26,5.68-39.87-2.22,0-4.13,0-6.03,0-23.16,0-46.32,0-69.48,0-6.8,0-10.4-3.8-9.51-10.55,2-15.16,4.23-30.29,6.47-46.25Z"/>
      <path d="M1452.63,220.67c-2.39,0-4.36,0-6.34,0-33.16,0-66.32,.08-99.47-.09-4.7-.03-6.94,.63-7.53,6.12-1.68,15.52-4.2,30.94-6.49,47.17,2.15,0,3.91,0,5.67,0,27.33,0,54.65,0,81.98,0,7.24,0,10.5,3.57,9.55,10.68-2.03,15.16-4.17,30.31-6.33,45.99h-98.84c-2.86,20.3-5.66,40.12-8.52,60.42,2.53,0,4.5,0,6.47,0,60.32,0,120.64-.1,180.95,.1,9.43,.03,18.84,1.66,28.28,2.1,5.61,.26,11.33,.13,16.88-.68,9.43-1.38,16.38-6.68,19.44-15.81,3.19-9.51,.07-18.27-6.95-24.55-8.64-7.72-18.32-14.32-27.79-21.06-11.1-7.91-22.82-15.01-33.65-23.27-43.16-32.9-38.55-91.64-1.71-122.59,17.84-14.99,38.38-22.81,61.49-24.47,32.35-2.32,62.36,5.13,90.42,21.11,2.47,1.4,4.33,2.62,3.71,6.05-2.67,14.89-5.06,29.83-7.69,44.73-.94,5.34-7.42,7.89-12.05,4.94-17.94-11.41-37.19-19.22-58.59-20.76-9.53-.69-18.55,1.08-26.4,7.05-11.51,8.75-12.71,22.98-1.47,31.98,10.61,8.49,22.25,15.75,33.74,23.08,14.64,9.33,29.22,18.66,40.44,32.21,26.23,31.66,24.06,81.58-4.63,111.04-9.21,9.46-19.49,17.84-32.17,21.16-11.28,2.95-23.3,4.22-35,4.24-99.63,.15-199.27-.15-298.9-.32-8.24-.01-11.34-3.47-10.18-11.68,5.51-38.86,11.13-77.71,16.61-116.58,5.16-36.56,10.2-73.14,15.32-109.71,1.96-14,4.07-27.98,5.87-42,.38-2.92,1.6-3.5,4.18-3.45,6.66,.12,13.33,.04,19.99,.04,48.65,0,97.31,0,145.96,0,8.05,0,11.1,3.24,10.06,11.12-1.98,15-4.13,29.98-6.3,45.68Z"/>
      <path d="M989.89,160.55c1.65,9.24,3.34,18.53,4.95,27.83,7.55,43.4,15.1,86.79,22.63,130.19,6.93,39.96,13.84,79.93,20.73,119.9,.63,3.66-3.07,8.69-6.73,8.71-20.64,.11-41.28,.05-62.29,.05-2.81-19.85-5.57-39.39-8.42-59.55h-4.99c-22.33,0-44.66,.1-66.99-.1-3.81-.03-5.49,1.32-6.94,4.68-7.38,17.09-15.11,34.03-22.5,51.11-1.25,2.89-2.69,3.97-5.85,3.94-19.83-.14-39.66-.05-59.49-.08-5.96,0-9.64-5.83-7.05-11.18,28.55-59.13,57.14-118.24,85.69-177.37,15.18-31.44,30.32-62.9,45.49-94.35,1.08-2.25,1.96-4.21,5.31-4.18,21.33,.18,42.66,.1,63.99,.11,.65,0,1.31,.15,2.47,.3Zm-46.46,86.38c-.4-.05-.79-.09-1.19-.14-12.21,30.21-24.43,60.42-36.74,90.88h48.89c-3.68-30.46-7.32-60.6-10.96-90.74Z"/>
      <path d="M1083.77,163.87c20.42,0,40.4-.05,60.37,.04,3.81,.02,7.37,4.84,6.8,9.17-2.07,15.66-4.26,31.3-6.44,46.95-4.2,30.14-8.41,60.27-12.65,90.4-3.52,25.03-7.08,50.05-10.61,75.08-.23,1.62-.29,3.26-.48,5.44,2.1,0,3.89,0,5.68,0,35.65,0,71.3,0,106.95,0,7.08,0,10.55,3.79,9.61,10.66-2.04,14.98-4.15,29.96-6.32,45.62h-5.39c-58.97,0-117.94,0-176.91,0-7.12,0-10.26-3.98-9.24-11.15,4.96-34.9,9.81-69.82,14.75-104.72,5.17-36.55,10.42-73.09,15.6-109.64,2.5-17.62,4.9-35.24,7.36-52.86,.21-1.47,.54-2.92,.92-4.99Z"/>
      <path  d="M943.43,246.93c3.64,30.14,7.28,60.28,10.96,90.74h-48.89c12.31-30.46,24.53-60.67,36.74-90.88,.4,.05,.79,.09,1.19,.14Z"/>
    </g>
  </g>
</svg>